<svg id="图层_1" data-name="图层 1" xmlns="http://www.w3.org/2000/svg" xmlns:xlink="http://www.w3.org/1999/xlink" viewBox="0 0 256 256"><defs><style>.cls-1{fill:#c0c9da;}.cls-1,.cls-4{opacity:0.7;}.cls-2{opacity:0.5;fill:url(#未命名的渐变_25);}.cls-3{opacity:0.9;fill:url(#未命名的渐变_34);}.cls-4{fill:url(#未命名的渐变_35);}</style><linearGradient id="未命名的渐变_25" x1="57.19" y1="233.43" x2="105.54" y2="73.11" gradientUnits="userSpaceOnUse"><stop offset="0.14" stop-color="#fafbfc"/><stop offset="0.34" stop-color="#c3ccde"/></linearGradient><linearGradient id="未命名的渐变_34" x1="190.27" y1="226.64" x2="161.73" y2="83.66" gradientUnits="userSpaceOnUse"><stop offset="0" stop-color="#ebedf2"/><stop offset="0.93" stop-color="#495a80"/></linearGradient><radialGradient id="未命名的渐变_35" cx="131.51" cy="70.12" r="81.1" gradientUnits="userSpaceOnUse"><stop offset="0.33" stop-color="#96accc"/><stop offset="1" stop-color="#d9dfe7"/></radialGradient></defs><polygon class="cls-1" points="30.43 150.94 128.58 207.08 225.49 150.94 127.96 96.06 30.43 150.94"/><polygon class="cls-1" points="30.97 110.52 127.96 54.06 224.95 110.52 127.96 166.34 30.97 110.52"/><path class="cls-2" d="M128.58,207.08V239L38,187.75a15,15,0,0,1-7.61-13.05V150.94Zm-.58-9.44v-31.3L31,110.52v31.71Zm-.09-39.76V126.15L33.27,71.5a24.65,24.65,0,0,0-2.35,9.36V102Z"/><path class="cls-3" d="M225.49,150.94v25.42a15,15,0,0,1-7.72,13.11L128.58,239V207.08Zm-.54-8.71V110.52l-97,55.82v31.3ZM225,102V80.86a24.65,24.65,0,0,0-2.35-9.36L128,126.15v31.73Z"/><path class="cls-4" d="M128,126.15,222.65,71.5s-1.46-2.63-10.57-8.24L137,19.48a17.9,17.9,0,0,0-18,0L38.18,66.11s-3.84,3-4.81,5.39Z"/></svg>